<svg xmlns="http://www.w3.org/2000/svg" xmlns:xlink="http://www.w3.org/1999/xlink" width="700" zoomAndPan="magnify" viewBox="0 0 525 525.000007" height="700" preserveAspectRatio="xMidYMid meet" version="1.0"><defs><g/><clipPath id="624922d540"><path d="M 0.5 0 L 524.5 0 L 524.5 524 L 0.5 524 Z M 0.5 0 " clip-rule="nonzero"/></clipPath><clipPath id="0ef47bfd80"><path d="M 186.210938 244 L 338 244 L 338 349 L 186.210938 349 Z M 186.210938 244 " clip-rule="nonzero"/></clipPath><clipPath id="12c47fdec6"><path d="M 186.210938 196 L 338.777344 196 L 338.777344 300 L 186.210938 300 Z M 186.210938 196 " clip-rule="nonzero"/></clipPath></defs><g clip-path="url(#624922d540)"><path fill="#ffffff" d="M 0.5 0 L 524.5 0 L 524.5 531.488281 L 0.5 531.488281 Z M 0.5 0 " fill-opacity="1" fill-rule="nonzero"/><path fill="#ffffff" d="M 0.5 0 L 524.5 0 L 524.5 524 L 0.5 524 Z M 0.5 0 " fill-opacity="1" fill-rule="nonzero"/><path fill="#0077c0" d="M 0.5 0 L 524.5 0 L 524.5 524 L 0.5 524 Z M 0.5 0 " fill-opacity="1" fill-rule="nonzero"/></g><g clip-path="url(#0ef47bfd80)"><path fill="#a6a6a6" d="M 211.691406 245.90625 C 211.964844 245.613281 212.285156 245.382812 212.65625 245.222656 C 213.023438 245.0625 213.410156 244.980469 213.8125 244.980469 C 214.214844 244.980469 214.601562 245.0625 214.972656 245.222656 C 215.339844 245.382812 215.660156 245.613281 215.933594 245.90625 L 240.792969 274.792969 C 241.148438 275.207031 241.363281 275.683594 241.4375 276.222656 C 241.515625 276.761719 241.4375 277.277344 241.210938 277.773438 C 240.980469 278.265625 240.636719 278.660156 240.179688 278.953125 C 239.71875 279.25 239.214844 279.394531 238.667969 279.394531 L 231.367188 279.394531 C 231.542969 280.835938 231.773438 282.269531 232.066406 283.691406 C 232.359375 285.113281 232.714844 286.519531 233.125 287.914062 C 233.539062 289.304688 234.007812 290.679688 234.535156 292.03125 C 235.0625 293.386719 235.648438 294.714844 236.289062 296.019531 C 236.925781 297.320312 237.621094 298.597656 238.367188 299.84375 C 239.117188 301.089844 239.914062 302.300781 240.765625 303.480469 C 241.613281 304.660156 242.511719 305.800781 243.457031 306.90625 C 244.402344 308.011719 245.394531 309.074219 246.429688 310.09375 C 247.464844 311.113281 248.542969 312.089844 249.660156 313.023438 C 250.777344 313.953125 251.933594 314.835938 253.125 315.667969 C 254.320312 316.503906 255.542969 317.285156 256.800781 318.015625 C 258.0625 318.746094 259.347656 319.425781 260.664062 320.046875 C 261.980469 320.671875 263.316406 321.238281 264.679688 321.75 C 266.042969 322.261719 267.425781 322.714844 268.828125 323.109375 C 270.230469 323.503906 271.644531 323.839844 273.074219 324.117188 C 274.503906 324.394531 275.945312 324.613281 277.394531 324.769531 C 278.839844 324.925781 280.292969 325.019531 281.75 325.054688 C 283.207031 325.089844 284.660156 325.0625 286.113281 324.972656 C 287.566406 324.886719 289.015625 324.738281 290.457031 324.53125 C 291.898438 324.320312 293.328125 324.050781 294.746094 323.722656 C 296.167969 323.394531 297.570312 323.007812 298.957031 322.5625 C 300.339844 322.117188 301.707031 321.613281 303.050781 321.050781 C 304.394531 320.492188 305.710938 319.875 307.003906 319.203125 C 308.292969 318.535156 309.554688 317.808594 310.785156 317.03125 C 312.015625 316.257812 313.214844 315.429688 314.375 314.554688 C 315.535156 313.675781 316.65625 312.753906 317.738281 311.78125 C 318.824219 310.8125 319.863281 309.796875 320.859375 308.738281 C 321.859375 307.679688 322.808594 306.582031 323.714844 305.445312 C 324.621094 304.308594 325.476562 303.132812 326.28125 301.925781 C 327.085938 300.714844 327.839844 299.472656 328.542969 298.199219 C 329.242188 296.929688 329.890625 295.628906 330.480469 294.300781 C 331.074219 292.976562 331.609375 291.625 332.085938 290.253906 C 332.1875 289.972656 332.328125 289.714844 332.515625 289.480469 C 332.699219 289.246094 332.917969 289.046875 333.167969 288.882812 C 333.421875 288.71875 333.691406 288.601562 333.980469 288.523438 C 334.269531 288.449219 334.566406 288.421875 334.863281 288.445312 C 335.050781 288.4375 335.238281 288.449219 335.425781 288.480469 C 335.476562 288.480469 335.527344 288.480469 335.578125 288.5 C 335.9375 288.582031 336.269531 288.730469 336.570312 288.945312 C 336.875 289.15625 337.125 289.417969 337.320312 289.730469 C 337.519531 290.042969 337.648438 290.382812 337.710938 290.746094 C 337.777344 291.109375 337.765625 291.472656 337.683594 291.832031 C 337.203125 293.941406 336.628906 296.023438 335.960938 298.078125 C 335.296875 300.136719 334.535156 302.15625 333.6875 304.144531 C 332.835938 306.136719 331.898438 308.082031 330.875 309.988281 C 329.851562 311.890625 328.742188 313.746094 327.550781 315.550781 C 326.359375 317.359375 325.085938 319.105469 323.738281 320.800781 C 322.390625 322.492188 320.964844 324.121094 319.472656 325.683594 C 317.976562 327.25 316.410156 328.742188 314.78125 330.167969 C 313.152344 331.59375 311.460938 332.945312 309.707031 334.21875 C 307.957031 335.492188 306.152344 336.683594 304.292969 337.796875 C 302.433594 338.910156 300.527344 339.9375 298.574219 340.878906 C 296.625 341.820312 294.632812 342.675781 292.605469 343.4375 C 290.578125 344.203125 288.519531 344.875 286.429688 345.453125 C 284.339844 346.035156 282.230469 346.519531 280.097656 346.910156 C 277.964844 347.300781 275.820312 347.597656 273.660156 347.796875 C 271.5 347.996094 269.335938 348.097656 267.167969 348.105469 C 265 348.109375 262.835938 348.019531 260.675781 347.832031 C 258.515625 347.644531 256.367188 347.359375 254.234375 346.980469 C 252.097656 346.601562 249.984375 346.125 247.894531 345.558594 C 245.800781 344.988281 243.738281 344.328125 241.707031 343.574219 C 239.671875 342.820312 237.679688 341.980469 235.722656 341.046875 C 233.765625 340.117188 231.855469 339.097656 229.988281 337.996094 C 228.125 336.894531 226.3125 335.710938 224.554688 334.445312 C 222.792969 333.183594 221.097656 331.84375 219.457031 330.425781 C 217.820312 329.007812 216.25 327.523438 214.746094 325.964844 C 213.242188 324.410156 211.808594 322.789062 210.449219 321.105469 C 209.09375 319.417969 207.8125 317.675781 206.609375 315.878906 C 205.410156 314.078125 204.289062 312.230469 203.253906 310.328125 C 202.21875 308.429688 201.273438 306.488281 200.414062 304.503906 C 199.550781 302.519531 198.78125 300.503906 198.105469 298.449219 C 197.425781 296.398438 196.839844 294.316406 196.347656 292.210938 C 195.855469 290.109375 195.460938 287.984375 195.160156 285.84375 C 194.859375 283.703125 194.65625 281.554688 194.546875 279.394531 L 188.957031 279.394531 C 188.410156 279.394531 187.910156 279.246094 187.449219 278.953125 C 186.988281 278.660156 186.644531 278.265625 186.417969 277.773438 C 186.191406 277.277344 186.113281 276.761719 186.1875 276.222656 C 186.265625 275.683594 186.480469 275.207031 186.835938 274.792969 Z M 211.691406 245.90625 " fill-opacity="1" fill-rule="nonzero"/></g><g clip-path="url(#12c47fdec6)"><path fill="#a6a6a6" d="M 310.875 299.3125 C 310.019531 299.3125 309.308594 298.988281 308.753906 298.339844 L 283.894531 269.457031 C 283.539062 269.042969 283.324219 268.566406 283.246094 268.027344 C 283.171875 267.488281 283.246094 266.972656 283.476562 266.476562 C 283.703125 265.984375 284.046875 265.589844 284.507812 265.296875 C 284.964844 265 285.46875 264.855469 286.015625 264.855469 L 292.546875 264.855469 C 292.375 263.414062 292.144531 261.980469 291.851562 260.558594 C 291.558594 259.136719 291.203125 257.730469 290.792969 256.335938 C 290.378906 254.941406 289.910156 253.570312 289.382812 252.214844 C 288.855469 250.863281 288.273438 249.535156 287.632812 248.230469 C 286.992188 246.925781 286.296875 245.648438 285.550781 244.402344 C 284.804688 243.15625 284.003906 241.945312 283.15625 240.765625 C 282.304688 239.585938 281.410156 238.441406 280.460938 237.339844 C 279.515625 236.234375 278.527344 235.171875 277.488281 234.152344 C 276.453125 233.128906 275.378906 232.152344 274.257812 231.222656 C 273.140625 230.292969 271.988281 229.410156 270.792969 228.574219 C 269.601562 227.742188 268.375 226.957031 267.117188 226.226562 C 265.859375 225.496094 264.574219 224.816406 263.257812 224.195312 C 261.941406 223.570312 260.601562 223.003906 259.238281 222.492188 C 257.875 221.980469 256.492188 221.527344 255.089844 221.132812 C 253.691406 220.734375 252.273438 220.398438 250.84375 220.121094 C 249.414062 219.84375 247.976562 219.628906 246.527344 219.472656 C 245.078125 219.316406 243.625 219.222656 242.171875 219.1875 C 240.714844 219.152344 239.257812 219.179688 237.804688 219.265625 C 236.351562 219.351562 234.902344 219.5 233.460938 219.710938 C 232.019531 219.917969 230.589844 220.1875 229.171875 220.515625 C 227.75 220.84375 226.347656 221.230469 224.960938 221.679688 C 223.574219 222.125 222.210938 222.628906 220.867188 223.1875 C 219.523438 223.75 218.207031 224.363281 216.914062 225.035156 C 215.621094 225.707031 214.359375 226.429688 213.128906 227.207031 C 211.898438 227.984375 210.703125 228.808594 209.542969 229.6875 C 208.378906 230.5625 207.257812 231.488281 206.175781 232.457031 C 205.09375 233.429688 204.050781 234.445312 203.054688 235.503906 C 202.058594 236.558594 201.105469 237.660156 200.199219 238.796875 C 199.296875 239.933594 198.441406 241.109375 197.632812 242.316406 C 196.828125 243.527344 196.074219 244.769531 195.371094 246.039062 C 194.671875 247.3125 194.023438 248.613281 193.433594 249.941406 C 192.84375 251.265625 192.308594 252.617188 191.828125 253.988281 C 191.730469 254.269531 191.585938 254.527344 191.398438 254.761719 C 191.214844 255 190.996094 255.199219 190.742188 255.363281 C 190.492188 255.523438 190.222656 255.644531 189.929688 255.71875 C 189.640625 255.792969 189.34375 255.820312 189.046875 255.796875 C 188.855469 255.804688 188.667969 255.792969 188.480469 255.761719 C 188.433594 255.761719 188.386719 255.761719 188.339844 255.742188 C 187.976562 255.660156 187.644531 255.511719 187.34375 255.296875 C 187.039062 255.085938 186.789062 254.824219 186.59375 254.511719 C 186.394531 254.199219 186.265625 253.859375 186.203125 253.496094 C 186.140625 253.132812 186.148438 252.769531 186.230469 252.410156 C 186.710938 250.300781 187.285156 248.21875 187.949219 246.160156 C 188.617188 244.105469 189.375 242.082031 190.226562 240.089844 C 191.074219 238.101562 192.011719 236.15625 193.035156 234.25 C 194.058594 232.34375 195.167969 230.488281 196.359375 228.679688 C 197.550781 226.875 198.820312 225.125 200.171875 223.429688 C 201.519531 221.738281 202.941406 220.109375 204.4375 218.542969 C 205.933594 216.976562 207.5 215.484375 209.128906 214.058594 C 210.757812 212.632812 212.449219 211.28125 214.203125 210.007812 C 215.953125 208.730469 217.761719 207.539062 219.621094 206.425781 C 221.480469 205.3125 223.386719 204.285156 225.335938 203.34375 C 227.289062 202.398438 229.28125 201.546875 231.308594 200.78125 C 233.335938 200.015625 235.398438 199.34375 237.484375 198.765625 C 239.574219 198.183594 241.6875 197.699219 243.820312 197.308594 C 245.953125 196.914062 248.101562 196.621094 250.257812 196.421875 C 252.417969 196.222656 254.582031 196.117188 256.753906 196.113281 C 258.921875 196.109375 261.085938 196.199219 263.246094 196.386719 C 265.40625 196.574219 267.554688 196.859375 269.691406 197.238281 C 271.828125 197.617188 273.941406 198.09375 276.03125 198.660156 C 278.125 199.230469 280.1875 199.890625 282.222656 200.644531 C 284.253906 201.398438 286.25 202.242188 288.207031 203.175781 C 290.164062 204.105469 292.074219 205.125 293.941406 206.226562 C 295.804688 207.328125 297.617188 208.515625 299.375 209.777344 C 301.136719 211.042969 302.835938 212.386719 304.472656 213.800781 C 306.109375 215.21875 307.679688 216.707031 309.1875 218.265625 C 310.691406 219.820312 312.121094 221.445312 313.480469 223.128906 C 314.839844 224.816406 316.117188 226.558594 317.320312 228.359375 C 318.519531 230.15625 319.636719 232.007812 320.671875 233.910156 C 321.707031 235.808594 322.65625 237.75 323.515625 239.734375 C 324.375 241.71875 325.144531 243.738281 325.824219 245.792969 C 326.5 247.847656 327.085938 249.925781 327.574219 252.03125 C 328.066406 254.140625 328.460938 256.261719 328.761719 258.402344 C 329.0625 260.546875 329.265625 262.695312 329.371094 264.855469 L 335.714844 264.855469 C 336.257812 264.855469 336.761719 265 337.222656 265.292969 C 337.679688 265.589844 338.023438 265.980469 338.253906 266.476562 C 338.480469 266.972656 338.558594 267.488281 338.480469 268.027344 C 338.40625 268.566406 338.191406 269.042969 337.832031 269.453125 L 312.996094 298.339844 C 312.4375 298.988281 311.730469 299.3125 310.875 299.3125 Z M 310.875 299.3125 " fill-opacity="1" fill-rule="nonzero"/></g><g fill="#ffffff" fill-opacity="1"><g transform="translate(108.349864, 140.803377)"><g><path d="M 3.9375 22.171875 C 4.6875 25.527344 7.640625 26.570312 10.476562 26.570312 C 12.964844 26.570312 15.28125 25.761719 15.917969 24.890625 L 16.152344 24.660156 C 16.265625 24.660156 16.496094 24.71875 16.789062 24.832031 C 18.871094 25.414062 20.898438 25.703125 22.921875 25.703125 C 27.496094 25.703125 31.664062 24.195312 34.730469 21.1875 C 37.453125 18.523438 38.898438 15.167969 38.898438 11.578125 C 38.898438 10.417969 38.785156 9.320312 38.496094 8.160156 C 36.933594 1.96875 31.722656 -0.695312 26.105469 -2.140625 C 34.90625 -6.136719 39.59375 -15.6875 39.59375 -24.71875 C 39.59375 -32.417969 36.179688 -39.769531 29 -43.066406 C 26.917969 -44.050781 24.949219 -44.398438 23.269531 -44.398438 C 20.550781 -44.398438 18.40625 -43.53125 17.191406 -42.835938 C 16.09375 -44.398438 12.964844 -45.382812 9.726562 -45.382812 C 5.789062 -45.382812 1.621094 -43.878906 0.984375 -39.828125 C 0.40625 -30.449219 0.0585938 -21.996094 0.0585938 -14.472656 C 0.0585938 1.15625 1.390625 13.023438 3.9375 22.171875 Z M 2.894531 -39.59375 C 3.359375 -42.488281 6.597656 -43.414062 9.726562 -43.414062 C 12.792969 -43.414062 15.6875 -42.488281 15.6875 -41.503906 L 15.6875 -41.332031 C 15.6875 -40.984375 15.917969 -40.636719 16.207031 -40.464844 C 16.324219 -40.40625 16.496094 -40.347656 16.613281 -40.347656 C 16.84375 -40.347656 17.078125 -40.464844 17.25 -40.578125 C 17.308594 -40.636719 19.625 -42.488281 23.210938 -42.488281 C 24.660156 -42.488281 26.339844 -42.199219 28.191406 -41.332031 C 34.558594 -38.4375 37.625 -31.722656 37.625 -24.660156 C 37.625 -15.398438 32.359375 -5.558594 22.402344 -2.894531 C 21.996094 -2.777344 21.707031 -2.429688 21.707031 -2.027344 L 21.707031 -1.910156 C 21.707031 -1.445312 21.996094 -1.042969 22.460938 -0.984375 C 28.539062 0.230469 35.023438 2.316406 36.644531 8.625 C 36.875 9.609375 36.988281 10.535156 36.988281 11.519531 C 36.988281 14.585938 35.773438 17.539062 33.402344 19.796875 C 30.679688 22.402344 26.976562 23.734375 22.921875 23.734375 C 21.070312 23.734375 19.160156 23.503906 17.191406 22.921875 C 16.902344 22.808594 16.496094 22.691406 16.09375 22.691406 C 15.570312 22.691406 14.933594 22.921875 14.414062 23.734375 C 13.894531 24.195312 12.273438 24.660156 10.59375 24.660156 C 8.507812 24.660156 6.308594 23.964844 5.789062 21.707031 C 3.242188 12.734375 2.027344 0.925781 2.027344 -14.414062 C 2.027344 -21.9375 2.316406 -30.273438 2.894531 -39.59375 Z M 14.820312 17.945312 C 14.878906 20.78125 18.117188 22.230469 21.535156 22.230469 C 23.847656 22.230469 26.222656 21.535156 27.726562 20.144531 C 29.636719 18.351562 30.679688 15.515625 30.679688 12.503906 C 30.679688 7.351562 27.613281 1.851562 20.898438 1.332031 C 20.609375 1.332031 20.203125 1.273438 19.796875 1.273438 C 18.40625 1.273438 16.496094 1.5625 15.339844 2.664062 C 14.703125 3.242188 14.296875 4.109375 14.296875 5.09375 L 14.296875 5.269531 C 14.296875 5.90625 14.242188 6.542969 14.242188 7.179688 C 14.242188 10.710938 14.644531 14.296875 14.820312 17.945312 Z M 19.796875 3.242188 C 20.085938 3.242188 20.433594 3.242188 20.78125 3.300781 C 26.398438 3.761719 28.710938 8.277344 28.710938 12.445312 C 28.710938 14.992188 27.84375 17.425781 26.398438 18.753906 C 25.238281 19.796875 23.503906 20.261719 21.824219 20.261719 C 19.21875 20.261719 16.789062 19.21875 16.730469 17.886719 C 16.554688 14.414062 16.152344 10.710938 16.152344 7.179688 C 16.152344 6.542969 16.207031 5.90625 16.207031 5.269531 C 16.207031 4.746094 16.382812 4.339844 16.671875 4.050781 C 17.25 3.53125 18.351562 3.242188 19.796875 3.242188 Z M 16.496094 -3.011719 C 17.425781 -3.011719 18.40625 -3.300781 18.871094 -3.589844 C 26.28125 -7.871094 30.21875 -18.351562 30.21875 -26.976562 C 30.21875 -33.691406 27.84375 -39.246094 22.75 -39.882812 L 22.171875 -39.882812 C 19.449219 -39.882812 15.746094 -38.667969 15.398438 -36.46875 C 14.992188 -33.921875 14.53125 -20.839844 14.53125 -11.402344 C 14.53125 -8.683594 14.53125 -6.308594 14.644531 -4.515625 L 14.644531 -4.339844 C 14.644531 -3.9375 14.820312 -3.53125 15.167969 -3.300781 C 15.515625 -3.066406 15.976562 -3.011719 16.496094 -3.011719 Z M 22.113281 -37.972656 L 22.574219 -37.972656 C 26.398438 -37.511719 28.25 -32.820312 28.25 -27.089844 C 28.25 -19.160156 24.71875 -9.203125 17.886719 -5.269531 C 17.597656 -5.09375 16.960938 -4.976562 16.554688 -4.921875 C 16.496094 -6.542969 16.441406 -8.625 16.441406 -10.941406 C 16.441406 -20.320312 16.960938 -33.75 17.308594 -36.179688 C 17.425781 -36.875 19.796875 -37.972656 22.113281 -37.972656 Z M 22.113281 -37.972656 "/></g></g></g><g fill="#ffffff" fill-opacity="1"><g transform="translate(149.159421, 140.803377)"><g><path d="M 22.632812 19.972656 L 23.328125 19.972656 C 26.398438 19.972656 28.652344 17.769531 29.8125 13.429688 C 31.664062 6.078125 32.589844 -0.40625 32.589844 -5.90625 C 32.589844 -12.851562 31.144531 -18.234375 28.25 -21.824219 C 25.46875 -25.238281 21.476562 -26.976562 16.324219 -26.976562 L 15.28125 -26.976562 C 10.304688 -26.976562 6.425781 -25.527344 3.820312 -22.75 C 1.445312 -20.261719 0.171875 -16.789062 0.171875 -12.621094 C 0.171875 -12.15625 0.230469 -11.75 0.230469 -11.289062 C 0.347656 -8.855469 2.546875 -7.292969 4.574219 -7.292969 L 4.804688 -7.292969 C 6.65625 -7.351562 8.453125 -8.507812 8.453125 -11.113281 C 8.566406 -19.625 12.734375 -22.054688 14.878906 -22.171875 C 20.203125 -21.996094 20.664062 -15.746094 20.664062 -8.160156 L 20.664062 -6.367188 C 19.507812 -7.0625 17.425781 -8.105469 14.183594 -8.105469 C 9.898438 -8.105469 6.078125 -6.136719 3.472656 -2.546875 C 1.5625 0.0585938 0.519531 3.300781 0.519531 6.308594 C 0.519531 7.46875 0.636719 8.566406 0.984375 9.609375 C 2.953125 15.859375 6.886719 18.988281 12.910156 18.988281 L 13.894531 18.988281 C 16.730469 18.8125 18.523438 17.769531 19.625 16.730469 C 19.566406 17.019531 19.566406 17.308594 19.566406 17.539062 C 19.566406 18.003906 19.625 18.464844 19.914062 18.871094 C 20.375 19.507812 21.246094 19.855469 22.632812 19.972656 Z M 21.476562 17.714844 L 21.476562 17.597656 C 21.476562 17.425781 21.535156 17.019531 21.59375 16.789062 C 21.707031 16.324219 21.824219 15.746094 21.824219 15.109375 C 21.824219 14.703125 21.765625 14.242188 21.59375 13.777344 C 21.476562 13.429688 21.070312 13.140625 20.722656 13.082031 L 20.550781 13.082031 C 20.027344 13.082031 19.738281 13.546875 19.449219 13.894531 C 18.871094 14.761719 17.539062 16.84375 13.835938 17.019531 L 13.082031 17.019531 C 7.757812 17.019531 4.632812 14.585938 2.835938 9.03125 C 2.546875 8.21875 2.429688 7.292969 2.429688 6.367188 C 2.429688 3.761719 3.359375 0.867188 5.035156 -1.445312 C 7.234375 -4.457031 10.476562 -6.136719 14.183594 -6.136719 C 17.367188 -6.136719 19.21875 -5.035156 20.144531 -4.398438 C 20.609375 -4.109375 21.011719 -3.878906 21.417969 -3.878906 C 21.648438 -3.878906 21.824219 -3.9375 22.054688 -4.050781 C 22.574219 -4.339844 22.632812 -4.976562 22.632812 -5.382812 L 22.632812 -8.160156 C 22.574219 -14.820312 22.574219 -23.847656 14.878906 -24.082031 C 11.808594 -23.964844 6.65625 -21.070312 6.542969 -11.113281 C 6.542969 -9.4375 5.269531 -9.261719 4.746094 -9.261719 C 3.648438 -9.261719 2.257812 -9.839844 2.199219 -11.402344 C 2.140625 -11.867188 2.140625 -12.273438 2.140625 -12.734375 C 2.140625 -16.324219 3.242188 -19.277344 5.210938 -21.417969 C 7.410156 -23.734375 10.824219 -25.007812 14.992188 -25.007812 L 15.859375 -25.007812 C 20.664062 -25.007812 24.3125 -23.617188 26.742188 -20.609375 C 29.289062 -17.367188 30.621094 -12.328125 30.621094 -5.847656 C 30.621094 -0.464844 29.695312 5.90625 27.902344 13.082031 C 27.035156 16.382812 25.46875 18.0625 23.328125 18.0625 C 23.15625 18.0625 22.980469 18.003906 22.808594 18.003906 C 21.707031 17.945312 21.476562 17.714844 21.476562 17.714844 Z M 14.414062 15.6875 L 14.53125 15.6875 C 18.929688 15.6875 22.113281 11.230469 22.285156 9.378906 C 22.75 4.746094 22.808594 2.835938 22.808594 1.445312 L 22.808594 -1.15625 C 22.808594 -1.738281 22.460938 -2.082031 22.34375 -2.257812 C 21.417969 -3.242188 18.753906 -4.6875 16.613281 -4.6875 C 12.214844 -4.632812 9.378906 -2.199219 8.566406 2.375 C 8.394531 3.53125 8.21875 4.976562 8.21875 6.542969 C 8.21875 9.089844 8.683594 11.867188 10.1875 13.71875 C 11.230469 14.933594 12.675781 15.628906 14.414062 15.6875 Z M 16.613281 -2.777344 C 18.175781 -2.777344 20.375 -1.503906 20.839844 -0.984375 L 20.839844 1.910156 C 20.839844 3.183594 20.78125 5.035156 20.375 9.144531 L 20.375 9.203125 C 20.261719 9.898438 18.003906 13.71875 14.53125 13.71875 L 14.472656 13.71875 C 13.257812 13.660156 12.328125 13.257812 11.691406 12.445312 C 10.710938 11.289062 10.1875 9.203125 10.1875 6.542969 C 10.1875 5.324219 10.246094 3.996094 10.476562 2.605469 C 11.113281 -0.925781 13.199219 -2.71875 16.613281 -2.777344 Z M 16.613281 -2.777344 "/></g></g></g><g fill="#ffffff" fill-opacity="1"><g transform="translate(182.443808, 140.803377)"><g><path d="M 13.835938 13.140625 L 14.007812 13.140625 C 16.265625 13.140625 23.097656 10.824219 24.195312 0.464844 L 24.195312 0.171875 C 24.195312 -0.519531 23.847656 -1.214844 23.269531 -1.679688 C 22.632812 -2.140625 21.765625 -2.375 20.839844 -2.375 C 20.144531 -2.375 19.449219 -2.199219 18.8125 -1.910156 C 17.828125 -1.390625 17.191406 -0.519531 17.132812 0.464844 C 16.902344 5.152344 15.398438 6.773438 14.183594 6.773438 C 13.140625 6.773438 11.402344 2.835938 10.882812 -5.613281 C 10.824219 -6.945312 10.765625 -8.21875 10.765625 -9.4375 C 10.765625 -18.117188 12.503906 -24.140625 14.355469 -24.371094 C 14.53125 -24.371094 14.703125 -24.429688 14.878906 -24.429688 C 15.570312 -24.429688 16.152344 -24.195312 16.554688 -23.792969 C 17.480469 -22.867188 17.769531 -20.957031 17.769531 -18.929688 C 17.769531 -17.019531 17.480469 -14.992188 17.367188 -13.660156 C 17.25 -12.675781 17.132812 -11.925781 17.132812 -11.347656 L 17.132812 -10.765625 C 17.132812 -10.128906 17.25 -9.261719 17.886719 -8.625 C 18.40625 -8.105469 19.21875 -7.871094 20.261719 -7.871094 L 20.78125 -7.871094 C 24.484375 -8.160156 24.660156 -10.710938 24.660156 -11.636719 C 24.777344 -12.621094 24.832031 -13.546875 24.832031 -14.53125 C 24.832031 -19.625 23.269531 -24.429688 20.664062 -27.324219 C 18.753906 -29.40625 16.382812 -30.390625 13.488281 -30.449219 C 9.144531 -30.390625 5.558594 -28.074219 3.183594 -23.792969 C 1.15625 -20.203125 0.171875 -15.222656 0.171875 -10.128906 C 0.171875 -4.050781 1.621094 2.257812 4.339844 6.832031 C 6.832031 10.941406 10.128906 13.140625 13.835938 13.140625 Z M 13.546875 -28.480469 L 13.660156 -28.480469 C 15.859375 -28.480469 17.714844 -27.671875 19.277344 -25.992188 C 21.824219 -23.15625 22.867188 -18.464844 22.867188 -14.355469 C 22.867188 -13.488281 22.867188 -12.675781 22.75 -11.867188 L 22.75 -11.636719 C 22.691406 -10.824219 22.632812 -9.957031 20.609375 -9.839844 L 20.144531 -9.839844 C 19.738281 -9.839844 19.390625 -9.898438 19.21875 -10.015625 C 19.101562 -10.128906 19.042969 -10.363281 19.042969 -10.652344 C 19.042969 -10.824219 19.101562 -11.054688 19.101562 -11.230469 L 19.101562 -11.636719 C 19.101562 -11.925781 19.160156 -12.5625 19.277344 -13.429688 C 19.449219 -14.933594 19.683594 -16.902344 19.683594 -18.871094 C 19.683594 -21.300781 19.335938 -23.734375 17.886719 -25.125 C 17.132812 -25.933594 16.09375 -26.339844 14.878906 -26.339844 C 14.644531 -26.339844 14.355469 -26.28125 14.125 -26.28125 C 9.957031 -25.816406 8.855469 -16.382812 8.855469 -9.261719 C 8.855469 -7.871094 8.914062 -6.597656 8.972656 -5.5 C 9.203125 -1.273438 10.1875 8.683594 14.183594 8.742188 C 15.222656 8.742188 18.753906 8.160156 19.101562 0.578125 C 19.101562 0.464844 19.101562 0.117188 19.683594 -0.171875 C 20.027344 -0.347656 20.492188 -0.40625 20.898438 -0.40625 C 21.359375 -0.40625 21.882812 -0.289062 22.113281 -0.0585938 C 22.285156 0.0585938 22.285156 0.171875 22.285156 0.230469 C 21.359375 9.203125 15.859375 11.230469 13.949219 11.230469 L 13.71875 11.230469 C 10.074219 11.230469 7.46875 8.277344 5.960938 5.789062 C 3.414062 1.503906 2.082031 -4.398438 2.082031 -10.128906 C 2.082031 -14.878906 3.011719 -19.507812 4.863281 -22.867188 C 6.945312 -26.570312 9.839844 -28.421875 13.546875 -28.480469 Z M 13.546875 -28.480469 "/></g></g></g><g fill="#ffffff" fill-opacity="1"><g transform="translate(207.450519, 140.803377)"><g><path d="M 6.65625 18.523438 L 7.234375 18.523438 C 13.660156 17.828125 13.777344 9.78125 13.835938 5.441406 C 13.835938 4.457031 13.894531 3.242188 13.894531 3.066406 C 14.992188 1.792969 16.09375 0.519531 17.25 -0.753906 L 18.351562 -1.96875 C 18.640625 -1.042969 18.988281 0.519531 19.277344 1.738281 C 19.972656 4.632812 20.722656 7.871094 21.882812 9.550781 C 23.039062 11.171875 24.542969 11.984375 26.164062 11.984375 C 27.148438 11.984375 28.132812 11.691406 29.117188 11.113281 C 31.433594 9.667969 32.300781 6.425781 32.300781 2.835938 C 32.300781 -0.40625 31.605469 -3.9375 30.621094 -6.65625 C 29.984375 -8.335938 29.117188 -10.1875 27.960938 -11.171875 C 30.273438 -13.488281 32.128906 -15.570312 33.980469 -17.769531 C 34.558594 -18.464844 34.789062 -19.21875 34.789062 -19.914062 C 34.789062 -20.550781 34.617188 -21.1875 34.152344 -21.707031 C 33.574219 -22.460938 32.648438 -22.867188 31.664062 -22.867188 C 31.144531 -22.867188 30.621094 -22.75 30.101562 -22.519531 C 26.859375 -21.882812 19.566406 -14.53125 14.933594 -9.089844 C 15.570312 -15.457031 17.191406 -30.101562 18.40625 -40.519531 C 18.40625 -40.695312 18.464844 -40.867188 18.464844 -41.101562 C 18.464844 -42.722656 17.539062 -44.339844 15.746094 -45.558594 C 14.125 -46.65625 11.75 -47.410156 9.378906 -47.410156 C 7.757812 -47.410156 6.136719 -47.121094 4.746094 -46.308594 C 2.953125 -45.269531 0.808594 -43.125 0.808594 -38.609375 L 0.808594 -37.917969 C 0.867188 -35.195312 0.867188 -32.589844 0.867188 -30.042969 C 0.867188 -24.140625 0.753906 -18.699219 0.695312 -13.660156 C 0.636719 -9.492188 0.578125 -5.671875 0.578125 -2.199219 C 0.578125 8.105469 1.15625 14.933594 3.878906 17.480469 C 4.632812 18.175781 5.613281 18.523438 6.65625 18.523438 Z M 9.320312 -45.5 C 11.289062 -45.5 13.3125 -44.863281 14.644531 -43.9375 C 15.339844 -43.472656 16.441406 -42.488281 16.441406 -41.15625 L 16.441406 -40.753906 C 16.09375 -37.394531 12.734375 -7.46875 12.734375 -6.078125 C 12.734375 -5.613281 12.964844 -5.269531 13.371094 -5.152344 C 13.488281 -5.09375 13.601562 -5.09375 13.660156 -5.09375 C 13.949219 -5.09375 14.242188 -5.210938 14.472656 -5.441406 C 19.972656 -12.503906 28.25 -20.320312 30.566406 -20.664062 C 30.679688 -20.664062 30.738281 -20.722656 30.855469 -20.78125 C 31.085938 -20.898438 31.375 -20.957031 31.605469 -20.957031 C 32.011719 -20.957031 32.417969 -20.78125 32.648438 -20.492188 C 32.820312 -20.320312 32.878906 -20.144531 32.878906 -19.972656 C 32.878906 -19.566406 32.648438 -19.21875 32.476562 -19.042969 C 30.449219 -16.554688 28.308594 -14.242188 25.585938 -11.519531 C 25.414062 -11.347656 25.296875 -11.113281 25.296875 -10.824219 C 25.296875 -10.710938 25.355469 -10.535156 25.414062 -10.417969 C 25.585938 -10.015625 25.992188 -9.839844 26.398438 -9.839844 C 26.628906 -9.839844 27.671875 -9.144531 28.769531 -5.960938 C 29.753906 -3.183594 30.332031 0 30.332031 2.835938 C 30.332031 5.90625 29.636719 8.453125 28.074219 9.4375 C 27.4375 9.839844 26.742188 10.015625 26.164062 10.015625 C 25.125 10.015625 24.195312 9.492188 23.445312 8.453125 C 22.519531 7.121094 21.765625 3.878906 21.1875 1.332031 C 20.320312 -2.488281 19.914062 -4.050781 18.8125 -4.339844 C 18.699219 -4.398438 18.582031 -4.398438 18.464844 -4.398438 C 18.175781 -4.398438 17.828125 -4.226562 17.480469 -3.9375 L 15.804688 -2.027344 C 14.644531 -0.753906 13.488281 0.519531 12.445312 1.851562 C 11.984375 2.375 11.925781 3.242188 11.867188 5.382812 C 11.808594 10.59375 11.347656 16.09375 7.003906 16.554688 C 6.832031 16.554688 6.714844 16.613281 6.597656 16.613281 C 6.019531 16.613281 5.558594 16.382812 5.152344 16.035156 C 3.011719 14.066406 2.488281 7.234375 2.488281 -2.140625 C 2.488281 -5.671875 2.605469 -9.550781 2.664062 -13.660156 C 2.71875 -18.753906 2.835938 -24.3125 2.835938 -30.273438 C 2.835938 -32.765625 2.835938 -35.367188 2.777344 -37.972656 L 2.777344 -38.667969 C 2.777344 -41.503906 3.761719 -43.589844 5.730469 -44.632812 C 6.773438 -45.210938 8.046875 -45.5 9.320312 -45.5 Z M 9.320312 -45.5 "/></g></g></g><g fill="#ffffff" fill-opacity="1"><g transform="translate(243.339768, 140.803377)"><g><path d="M 12.386719 14.878906 C 12.5625 14.878906 12.734375 14.878906 12.910156 14.820312 C 17.769531 14.53125 19.738281 9.839844 20.664062 6.484375 C 22.171875 10.535156 25.179688 13.894531 29.582031 14.007812 L 30.21875 14.007812 C 33.574219 14.007812 36.410156 12.734375 38.667969 10.417969 C 44.226562 4.6875 45.152344 -6.542969 45.152344 -13.371094 C 45.152344 -15.109375 45.09375 -16.613281 45.035156 -17.597656 C 45.035156 -20.144531 43.996094 -22.171875 42.085938 -23.269531 C 41.15625 -23.792969 40.117188 -24.082031 39.074219 -24.082031 C 37.917969 -24.082031 36.757812 -23.792969 35.773438 -23.210938 C 33.863281 -22.113281 32.765625 -20.027344 32.765625 -17.539062 C 32.765625 -16.730469 32.820312 -15.804688 32.820312 -14.820312 C 32.820312 -7.582031 32.011719 2.375 29.582031 4.804688 C 29.234375 5.210938 28.945312 5.269531 28.769531 5.269531 C 27.554688 5.269531 26.800781 4.976562 26.164062 4.339844 C 24.542969 2.546875 23.675781 -2.082031 23.675781 -10.1875 C 23.675781 -12.851562 23.792969 -15.976562 23.964844 -19.449219 C 23.847656 -21.300781 21.824219 -22.171875 19.855469 -22.230469 C 17.597656 -22.171875 16.035156 -20.898438 16.035156 -19.042969 L 16.035156 -16.324219 C 16.035156 -0.0585938 14.066406 4.398438 12.851562 5.558594 C 12.503906 5.90625 12.214844 5.90625 12.039062 5.90625 C 11.636719 5.90625 11.289062 5.730469 11 5.324219 C 9.667969 3.761719 9.261719 0 9.261719 -4.167969 C 9.261719 -8.453125 9.667969 -13.199219 9.957031 -16.207031 C 10.128906 -17.828125 10.246094 -18.988281 10.246094 -19.683594 L 10.246094 -20.085938 C 10.128906 -21.824219 7.757812 -22.632812 5.269531 -22.632812 L 5.035156 -22.632812 C 2.429688 -22.574219 0.808594 -21.648438 0.808594 -20.144531 L 0.808594 -19.796875 C 0.753906 -18.351562 0.695312 -16.730469 0.695312 -14.992188 C 0.695312 -5.324219 1.792969 7.582031 7.0625 12.621094 C 8.566406 14.125 10.363281 14.878906 12.386719 14.878906 Z M 5.210938 -20.722656 C 6.714844 -20.722656 8.105469 -20.320312 8.335938 -19.972656 C 8.335938 -19.507812 8.21875 -18.0625 8.046875 -16.441406 C 7.640625 -12.273438 7.292969 -7.929688 7.292969 -4.109375 C 7.292969 0.695312 7.871094 4.6875 9.492188 6.597656 C 10.1875 7.410156 11 7.816406 11.925781 7.871094 C 12.792969 7.871094 13.546875 7.582031 14.183594 6.945312 C 16.730469 4.574219 18.003906 -3.300781 18.003906 -16.441406 L 18.003906 -19.042969 C 18.003906 -20.203125 19.738281 -20.261719 19.914062 -20.261719 C 21.011719 -20.203125 21.996094 -19.855469 21.996094 -19.449219 C 21.824219 -15.976562 21.707031 -12.910156 21.707031 -10.246094 C 21.707031 -1.390625 22.691406 3.472656 24.777344 5.671875 C 26.105469 7.0625 27.671875 7.234375 28.769531 7.234375 C 29.582031 7.234375 30.332031 6.886719 31.027344 6.195312 C 34.441406 2.664062 34.730469 -10.015625 34.730469 -15.28125 L 34.730469 -17.597656 C 34.730469 -19.390625 35.425781 -20.78125 36.757812 -21.535156 C 37.453125 -21.9375 38.261719 -22.113281 39.015625 -22.113281 C 39.769531 -22.113281 40.464844 -21.9375 41.101562 -21.59375 C 42.429688 -20.839844 43.125 -19.390625 43.125 -17.597656 L 43.125 -17.308594 C 43.183594 -16.382812 43.242188 -14.992188 43.242188 -13.257812 C 43.242188 -6.832031 42.429688 3.878906 37.28125 9.089844 C 35.3125 11.113281 32.878906 12.097656 29.871094 12.097656 L 29.636719 12.097656 C 25.066406 11.925781 22.34375 7.234375 21.648438 2.664062 C 21.59375 2.257812 21.359375 1.96875 20.957031 1.851562 C 20.898438 1.851562 20.78125 1.792969 20.722656 1.792969 C 20.433594 1.792969 20.144531 1.96875 19.972656 2.199219 C 19.683594 2.546875 19.507812 3.066406 19.21875 4.285156 C 18.523438 7.234375 17.191406 12.621094 12.792969 12.910156 L 12.386719 12.910156 C 10.882812 12.910156 9.550781 12.328125 8.394531 11.230469 C 4.632812 7.582031 2.664062 -1.621094 2.664062 -14.992188 C 2.664062 -16.496094 2.664062 -18.117188 2.71875 -19.738281 L 2.71875 -20.085938 C 2.71875 -20.144531 2.953125 -20.375 3.648438 -20.550781 C 4.167969 -20.664062 4.6875 -20.722656 5.210938 -20.722656 Z M 5.210938 -20.722656 "/></g></g></g><g fill="#ffffff" fill-opacity="1"><g transform="translate(289.301164, 140.803377)"><g><path d="M 12.214844 12.214844 C 12.386719 12.214844 12.621094 12.15625 12.851562 12.15625 C 21.417969 11.519531 26.339844 2.199219 26.339844 -6.773438 L 26.339844 -7.699219 C 26.050781 -15.109375 22.230469 -23.675781 12.386719 -23.675781 C 8.105469 -23.675781 4.632812 -21.535156 2.429688 -17.480469 C 0.753906 -14.414062 -0.0585938 -10.535156 -0.0585938 -6.542969 C -0.0585938 -1.738281 1.15625 3.183594 3.53125 6.886719 C 5.730469 10.304688 8.800781 12.214844 12.214844 12.214844 Z M 12.386719 -21.765625 C 20.839844 -21.765625 24.140625 -14.125 24.371094 -7.640625 L 24.371094 -6.832031 C 24.371094 1.273438 20.203125 9.667969 12.734375 10.246094 L 12.15625 10.246094 C 8.800781 10.246094 6.484375 7.871094 5.152344 5.789062 C 3.011719 2.488281 1.910156 -2.140625 1.910156 -6.65625 C 1.910156 -10.304688 2.605469 -13.835938 4.109375 -16.554688 C 5.382812 -18.929688 7.871094 -21.765625 12.386719 -21.765625 Z M 11.460938 7.816406 L 11.691406 7.816406 C 12.792969 7.816406 13.777344 7.0625 14.585938 5.558594 C 16.035156 2.953125 17.078125 -2.199219 17.078125 -7.0625 C 17.078125 -10.535156 16.554688 -13.894531 15.222656 -16.035156 C 14.242188 -17.597656 12.851562 -18.40625 11.230469 -18.40625 L 11.054688 -18.40625 C 10.246094 -18.351562 9.03125 -17.886719 8.105469 -15.976562 C 6.945312 -13.660156 6.367188 -9.78125 6.367188 -5.90625 C 6.367188 -1.042969 7.234375 3.878906 8.800781 6.195312 C 9.726562 7.46875 10.765625 7.816406 11.460938 7.816406 Z M 11.171875 -16.441406 L 11.289062 -16.441406 C 12.214844 -16.441406 12.964844 -15.976562 13.546875 -14.992188 C 14.703125 -13.199219 15.167969 -10.246094 15.167969 -7.0625 C 15.167969 -2.605469 14.183594 2.199219 12.910156 4.574219 C 12.386719 5.5 11.925781 5.847656 11.578125 5.847656 L 11.519531 5.847656 C 11.347656 5.847656 10.941406 5.789062 10.417969 5.035156 C 9.03125 3.125 8.335938 -1.390625 8.335938 -5.847656 C 8.335938 -9.4375 8.800781 -13.023438 9.839844 -15.109375 C 10.074219 -15.570312 10.59375 -16.441406 11.171875 -16.441406 Z M 11.171875 -16.441406 "/></g></g></g><g fill="#ffffff" fill-opacity="1"><g transform="translate(316.739074, 140.803377)"><g><path d="M 8.335938 15.746094 C 9.957031 15.746094 11.289062 15.050781 11.867188 13.949219 C 13.546875 11.578125 15.050781 -0.808594 15.746094 -11.808594 C 15.804688 -13.777344 18.003906 -16.613281 20.085938 -17.480469 C 20.492188 -17.65625 20.78125 -17.65625 21.070312 -17.65625 C 21.824219 -17.65625 22.171875 -17.308594 22.34375 -17.191406 C 24.082031 -15.570312 24.253906 -14.125 24.542969 -12.328125 C 24.601562 -11.867188 24.660156 -11.402344 24.777344 -10.882812 C 24.949219 -9.667969 25.875 -8.800781 26.917969 -8.800781 L 27.035156 -8.800781 C 28.25 -8.800781 31.203125 -9.78125 31.605469 -12.675781 C 31.664062 -13.023438 31.722656 -13.488281 31.722656 -14.066406 C 31.722656 -15.859375 31.257812 -18.523438 29.8125 -20.722656 C 28.421875 -22.867188 26.511719 -24.195312 24.195312 -24.660156 C 23.617188 -24.777344 23.039062 -24.832031 22.519531 -24.832031 C 19.738281 -24.832031 17.597656 -23.445312 16.265625 -22.519531 C 15.917969 -22.34375 15.570312 -22.054688 15.28125 -21.9375 C 15.222656 -22.054688 15.222656 -22.230469 15.167969 -22.519531 C 14.472656 -26.859375 11.347656 -28.363281 8.742188 -28.363281 C 8.453125 -28.363281 8.21875 -28.308594 7.988281 -28.308594 C 4.457031 -27.902344 0.808594 -25.007812 0.808594 -20.375 L 0.808594 -19.160156 C 0.808594 -14.703125 1.15625 5.730469 3.125 12.503906 C 3.648438 14.414062 5.847656 15.515625 7.640625 15.6875 C 7.871094 15.746094 8.105469 15.746094 8.335938 15.746094 Z M 8.742188 -26.398438 C 10.710938 -26.398438 12.792969 -25.296875 13.257812 -22.285156 C 13.3125 -21.476562 13.488281 -20.433594 14.355469 -20.027344 C 14.585938 -19.914062 14.820312 -19.855469 15.050781 -19.855469 C 15.746094 -19.855469 16.441406 -20.320312 17.308594 -20.898438 C 18.640625 -21.765625 20.320312 -22.867188 22.519531 -22.867188 C 22.921875 -22.867188 23.386719 -22.867188 23.847656 -22.75 C 25.644531 -22.402344 27.089844 -21.359375 28.132812 -19.683594 C 29.347656 -17.769531 29.8125 -15.570312 29.8125 -14.125 C 29.8125 -13.660156 29.753906 -13.3125 29.695312 -13.023438 C 29.464844 -11.171875 27.4375 -10.765625 27.035156 -10.765625 C 26.917969 -10.765625 26.742188 -10.882812 26.6875 -11.230469 C 26.570312 -11.691406 26.511719 -12.15625 26.453125 -12.621094 C 26.164062 -14.53125 25.933594 -16.554688 23.675781 -18.582031 C 22.921875 -19.277344 22.054688 -19.625 21.128906 -19.625 C 20.550781 -19.625 19.972656 -19.507812 19.335938 -19.277344 C 16.554688 -18.175781 13.949219 -14.644531 13.777344 -11.925781 C 12.964844 1.390625 11.347656 11.289062 10.246094 12.964844 C 9.839844 13.660156 8.914062 13.777344 8.335938 13.777344 L 7.871094 13.777344 C 6.484375 13.601562 5.210938 12.792969 4.976562 11.984375 C 3.066406 5.5 2.71875 -15.109375 2.71875 -19.277344 L 2.71875 -20.320312 C 2.71875 -23.847656 5.5 -26.050781 8.21875 -26.339844 C 8.394531 -26.398438 8.566406 -26.398438 8.742188 -26.398438 Z M 8.742188 -26.398438 "/></g></g></g><g fill="#ffffff" fill-opacity="1"><g transform="translate(348.460541, 140.803377)"><g><path d="M 26.050781 18.40625 C 27.207031 18.40625 28.480469 18.0625 29.464844 17.367188 C 32.53125 15.398438 34.730469 -13.140625 34.730469 -30.390625 C 34.730469 -36.296875 34.5 -40.867188 33.921875 -42.664062 C 33.226562 -44.746094 31.144531 -46.136719 28.652344 -46.195312 L 28.597656 -46.195312 C 26.222656 -46.195312 24.195312 -44.863281 23.503906 -42.777344 C 21.824219 -37.742188 20.609375 -24.023438 20.609375 -14.007812 C 18.988281 -15.050781 16.84375 -15.917969 13.660156 -15.917969 L 13.082031 -15.917969 C 9.320312 -15.917969 6.195312 -14.820312 3.996094 -12.675781 C 1.15625 -9.839844 -0.289062 -5.324219 -0.289062 0.808594 C -0.230469 5.671875 1.390625 9.839844 4.339844 12.5625 C 6.65625 14.703125 9.726562 15.804688 13.257812 15.804688 C 13.71875 15.804688 14.183594 15.804688 14.703125 15.746094 C 17.019531 15.515625 19.335938 14.242188 21.476562 12.097656 C 21.707031 14.007812 22.054688 15.859375 22.691406 16.902344 C 23.15625 17.597656 23.964844 18.117188 24.949219 18.292969 C 25.296875 18.40625 25.703125 18.40625 26.050781 18.40625 Z M 22.230469 8.742188 C 21.882812 8.742188 21.476562 9.03125 21.300781 9.320312 C 19.277344 11.984375 16.84375 13.601562 14.53125 13.835938 C 14.125 13.894531 13.660156 13.894531 13.257812 13.894531 C 10.246094 13.894531 7.640625 12.964844 5.671875 11.113281 C 3.125 8.800781 1.679688 5.152344 1.679688 0.808594 L 1.679688 0.464844 C 1.679688 -4.976562 2.953125 -8.914062 5.382812 -11.289062 C 7.234375 -13.140625 9.839844 -14.007812 13.257812 -14.007812 L 13.601562 -14.007812 C 17.367188 -13.949219 19.335938 -12.675781 20.957031 -11.289062 C 21.128906 -11.171875 21.359375 -11.054688 21.59375 -11.054688 C 21.707031 -11.054688 21.882812 -11.113281 21.996094 -11.171875 C 22.34375 -11.347656 22.519531 -11.691406 22.519531 -12.039062 L 22.519531 -13.371094 C 22.519531 -23.15625 23.675781 -37.28125 25.355469 -42.140625 C 25.875 -43.703125 27.378906 -44.226562 28.597656 -44.226562 L 28.652344 -44.226562 C 29.925781 -44.226562 31.546875 -43.648438 32.070312 -42.027344 C 32.589844 -40.347656 32.878906 -36.238281 32.878906 -30.96875 C 32.878906 -14.472656 30.566406 13.601562 28.421875 15.746094 C 27.671875 16.265625 26.800781 16.496094 25.992188 16.496094 C 25.761719 16.496094 25.585938 16.496094 25.355469 16.441406 C 24.890625 16.324219 24.542969 16.09375 24.371094 15.859375 C 23.617188 14.703125 23.328125 11.289062 23.15625 9.667969 C 23.15625 9.144531 22.691406 8.742188 22.230469 8.742188 Z M 15.28125 11.171875 L 15.515625 11.171875 C 19.101562 11.171875 22.808594 7.757812 23.097656 3.996094 C 23.097656 3.359375 23.15625 2.664062 23.15625 1.910156 C 23.15625 -1.15625 22.921875 -5.210938 22.574219 -7.410156 C 22.285156 -9.550781 19.449219 -11.636719 15.859375 -11.636719 C 15.515625 -11.636719 15.167969 -11.636719 14.820312 -11.578125 C 10.535156 -11.113281 8.394531 -5.558594 8.394531 0 L 8.394531 0.867188 C 8.625 7.003906 11.347656 11.054688 15.28125 11.171875 Z M 15.859375 -9.667969 C 18.640625 -9.667969 20.550781 -8.105469 20.664062 -7.121094 C 21.011719 -5.152344 21.246094 -1.15625 21.246094 2.027344 C 21.246094 2.664062 21.1875 3.300781 21.1875 3.878906 C 20.957031 6.597656 18.117188 9.261719 15.515625 9.261719 C 15.457031 9.261719 15.398438 9.203125 15.339844 9.203125 C 11.867188 9.144531 10.476562 4.632812 10.363281 0.753906 L 10.363281 -0.117188 C 10.363281 -4.6875 12.039062 -9.320312 15.050781 -9.609375 C 15.339844 -9.667969 15.570312 -9.667969 15.859375 -9.667969 Z M 15.859375 -9.667969 "/></g></g></g><g fill="#ffffff" fill-opacity="1"><g transform="translate(384.176126, 140.803377)"><g><path d="M 6.425781 14.472656 C 7.0625 14.472656 7.582031 14.414062 7.929688 14.355469 C 10.363281 14.296875 12.910156 13.777344 15.917969 13.199219 C 19.683594 12.445312 23.964844 11.578125 29.347656 11.289062 C 31.433594 11.171875 31.664062 9.667969 31.664062 9.261719 L 31.664062 9.203125 C 31.664062 6.542969 26.222656 0.695312 24.949219 0.578125 C 24.601562 0.519531 24.253906 0.519531 23.90625 0.519531 C 20.957031 0.519531 16.671875 1.445312 12.910156 2.257812 C 11.808594 2.546875 10.765625 2.777344 9.839844 2.953125 C 10.765625 -0.347656 14.992188 -6.65625 18.8125 -12.273438 C 24.140625 -20.085938 27.4375 -25.066406 27.4375 -27.785156 C 27.4375 -28.308594 27.324219 -28.710938 27.089844 -29.058594 C 25.761719 -31.203125 22.519531 -32.242188 17.308594 -32.242188 C 13.777344 -32.242188 9.261719 -31.78125 3.9375 -30.738281 L 3.53125 -30.679688 C 2.835938 -30.566406 1.273438 -29.984375 1.273438 -27.84375 L 1.273438 -27.378906 C 1.390625 -26.339844 2.429688 -23.097656 3.53125 -21.707031 C 3.9375 -20.550781 4.921875 -20.144531 6.308594 -20.144531 C 8.105469 -20.144531 10.476562 -20.839844 12.964844 -21.59375 C 14.703125 -22.113281 17.65625 -22.980469 18.8125 -22.980469 C 19.042969 -22.980469 19.21875 -22.921875 19.277344 -22.867188 C 18.175781 -21.359375 16.902344 -19.683594 15.628906 -17.886719 C 10.1875 -10.535156 3.359375 -1.390625 0.808594 5.5 C 0.230469 6.886719 0 8.160156 0 9.261719 C 0 10.476562 0.289062 11.519531 0.984375 12.386719 C 2.316406 14.125 4.746094 14.472656 6.425781 14.472656 Z M 18.640625 -24.777344 C 17.019531 -24.777344 14.820312 -24.140625 12.386719 -23.445312 C 10.765625 -22.921875 7.757812 -22.054688 6.25 -22.054688 C 5.730469 -22.054688 5.382812 -22.113281 5.324219 -22.34375 C 5.324219 -22.460938 5.269531 -22.574219 5.210938 -22.632812 C 4.6875 -23.386719 3.183594 -26.28125 3.183594 -27.785156 C 3.183594 -28.015625 3.242188 -28.191406 3.300781 -28.363281 C 3.359375 -28.480469 3.414062 -28.652344 3.820312 -28.769531 L 4.285156 -28.828125 C 10.015625 -29.925781 14.242188 -30.273438 17.308594 -30.273438 C 23.15625 -30.273438 24.949219 -28.828125 25.46875 -28.015625 C 25.527344 -27.960938 25.527344 -27.84375 25.527344 -27.671875 C 25.527344 -25.644531 20.375 -18.0625 17.191406 -13.371094 C 12.328125 -6.136719 7.699219 0.753906 7.699219 4.109375 L 7.699219 4.167969 C 7.699219 4.457031 7.871094 4.6875 8.046875 4.921875 C 8.21875 5.035156 8.453125 5.09375 8.625 5.09375 L 8.855469 5.09375 C 10.074219 4.921875 11.636719 4.574219 13.3125 4.167969 C 16.902344 3.414062 21.246094 2.488281 23.964844 2.488281 L 24.601562 2.488281 C 25.816406 3.359375 29.695312 7.757812 29.695312 9.089844 L 29.695312 9.261719 C 29.695312 9.261719 29.582031 9.320312 29.234375 9.320312 C 23.734375 9.667969 19.390625 10.535156 15.570312 11.289062 C 12.621094 11.867188 10.128906 12.386719 7.699219 12.445312 C 7.582031 12.445312 7.0625 12.503906 6.425781 12.503906 C 5.152344 12.503906 3.359375 12.328125 2.488281 11.171875 C 2.082031 10.652344 1.910156 10.015625 1.910156 9.261719 C 1.910156 8.394531 2.140625 7.410156 2.605469 6.195312 C 5.09375 -0.464844 11.808594 -9.492188 17.191406 -16.730469 C 18.464844 -18.523438 19.738281 -20.203125 20.839844 -21.765625 C 21.128906 -22.171875 21.1875 -22.519531 21.1875 -22.808594 C 21.1875 -23.097656 21.128906 -23.386719 21.011719 -23.617188 C 20.609375 -24.484375 19.738281 -24.777344 18.640625 -24.777344 Z M 18.640625 -24.777344 "/></g></g></g><g fill="#000000" fill-opacity="1"><g transform="translate(115.336904, 421.481552)"><g><path d="M 5.761719 12.976562 C 6.332031 12.976562 6.796875 12.921875 7.109375 12.871094 C 9.289062 12.820312 11.574219 12.351562 14.273438 11.832031 C 17.644531 11.160156 21.484375 10.378906 26.3125 10.121094 C 28.179688 10.015625 28.386719 8.667969 28.386719 8.304688 L 28.386719 8.25 C 28.386719 5.863281 23.511719 0.621094 22.367188 0.519531 C 22.058594 0.46875 21.746094 0.46875 21.433594 0.46875 C 18.789062 0.46875 14.945312 1.296875 11.574219 2.023438 C 10.585938 2.285156 9.652344 2.492188 8.824219 2.648438 C 9.652344 -0.3125 13.441406 -5.96875 16.867188 -11.003906 C 21.640625 -18.007812 24.601562 -22.472656 24.601562 -24.910156 C 24.601562 -25.378906 24.496094 -25.742188 24.289062 -26.054688 C 23.09375 -27.972656 20.1875 -28.90625 15.519531 -28.90625 C 12.351562 -28.90625 8.304688 -28.492188 3.527344 -27.558594 L 3.164062 -27.507812 C 2.542969 -27.402344 1.140625 -26.882812 1.140625 -24.964844 L 1.140625 -24.546875 C 1.246094 -23.613281 2.179688 -20.707031 3.164062 -19.460938 C 3.527344 -18.425781 4.410156 -18.0625 5.65625 -18.0625 C 7.265625 -18.0625 9.394531 -18.683594 11.625 -19.359375 C 13.183594 -19.824219 15.828125 -20.605469 16.867188 -20.605469 C 17.074219 -20.605469 17.230469 -20.550781 17.28125 -20.5 C 16.296875 -19.152344 15.15625 -17.644531 14.011719 -16.035156 C 9.132812 -9.445312 3.011719 -1.246094 0.726562 4.929688 C 0.207031 6.175781 0 7.316406 0 8.304688 C 0 9.394531 0.257812 10.328125 0.882812 11.105469 C 2.074219 12.664062 4.253906 12.976562 5.761719 12.976562 Z M 16.710938 -22.210938 C 15.257812 -22.210938 13.285156 -21.640625 11.105469 -21.019531 C 9.652344 -20.550781 6.953125 -19.773438 5.605469 -19.773438 C 5.136719 -19.773438 4.828125 -19.824219 4.773438 -20.03125 C 4.773438 -20.136719 4.722656 -20.242188 4.671875 -20.292969 C 4.203125 -20.96875 2.855469 -23.5625 2.855469 -24.910156 C 2.855469 -25.117188 2.90625 -25.273438 2.957031 -25.429688 C 3.011719 -25.535156 3.0625 -25.691406 3.425781 -25.792969 L 3.839844 -25.84375 C 8.976562 -26.832031 12.765625 -27.144531 15.519531 -27.144531 C 20.757812 -27.144531 22.367188 -25.84375 22.835938 -25.117188 C 22.886719 -25.066406 22.886719 -24.964844 22.886719 -24.808594 C 22.886719 -22.992188 18.269531 -16.191406 15.414062 -11.988281 C 11.054688 -5.5 6.902344 0.675781 6.902344 3.683594 L 6.902344 3.738281 C 6.902344 3.996094 7.058594 4.203125 7.214844 4.410156 C 7.371094 4.515625 7.578125 4.566406 7.734375 4.566406 L 7.941406 4.566406 C 9.03125 4.410156 10.429688 4.101562 11.9375 3.738281 C 15.15625 3.0625 19.046875 2.230469 21.484375 2.230469 L 22.058594 2.230469 C 23.148438 3.011719 26.625 6.953125 26.625 8.148438 L 26.625 8.304688 C 26.625 8.304688 26.519531 8.355469 26.207031 8.355469 C 21.277344 8.667969 17.386719 9.445312 13.960938 10.121094 C 11.3125 10.640625 9.082031 11.105469 6.902344 11.160156 C 6.796875 11.160156 6.332031 11.210938 5.761719 11.210938 C 4.617188 11.210938 3.011719 11.054688 2.230469 10.015625 C 1.867188 9.550781 1.710938 8.976562 1.710938 8.304688 C 1.710938 7.523438 1.921875 6.644531 2.335938 5.554688 C 4.566406 -0.414062 10.585938 -8.511719 15.414062 -15 C 16.554688 -16.609375 17.699219 -18.113281 18.683594 -19.515625 C 18.941406 -19.878906 18.996094 -20.1875 18.996094 -20.449219 C 18.996094 -20.707031 18.941406 -20.96875 18.839844 -21.175781 C 18.476562 -21.953125 17.699219 -22.210938 16.710938 -22.210938 Z M 16.710938 -22.210938 "/></g></g></g><g fill="#000000" fill-opacity="1"><g transform="translate(144.451235, 421.481552)"><g><path d="M 23.355469 16.503906 C 24.390625 16.503906 25.535156 16.191406 26.417969 15.570312 C 29.167969 13.804688 31.140625 -11.78125 31.140625 -27.246094 C 31.140625 -32.539062 30.929688 -36.640625 30.414062 -38.25 C 29.789062 -40.117188 27.921875 -41.363281 25.691406 -41.414062 L 25.636719 -41.414062 C 23.511719 -41.414062 21.695312 -40.222656 21.070312 -38.351562 C 19.566406 -33.839844 18.476562 -21.539062 18.476562 -12.558594 C 17.023438 -13.492188 15.101562 -14.273438 12.25 -14.273438 L 11.730469 -14.273438 C 8.355469 -14.273438 5.554688 -13.285156 3.582031 -11.367188 C 1.039062 -8.824219 -0.257812 -4.773438 -0.257812 0.726562 C -0.207031 5.085938 1.246094 8.824219 3.890625 11.261719 C 5.96875 13.183594 8.71875 14.167969 11.886719 14.167969 C 12.300781 14.167969 12.714844 14.167969 13.183594 14.117188 C 15.257812 13.910156 17.335938 12.765625 19.253906 10.847656 C 19.460938 12.558594 19.773438 14.21875 20.34375 15.15625 C 20.757812 15.777344 21.484375 16.246094 22.367188 16.398438 C 22.679688 16.503906 23.042969 16.503906 23.355469 16.503906 Z M 19.929688 7.835938 C 19.617188 7.835938 19.253906 8.097656 19.097656 8.355469 C 17.28125 10.742188 15.101562 12.195312 13.027344 12.402344 C 12.664062 12.457031 12.25 12.457031 11.886719 12.457031 C 9.1875 12.457031 6.851562 11.625 5.085938 9.964844 C 2.800781 7.886719 1.503906 4.617188 1.503906 0.726562 L 1.503906 0.414062 C 1.503906 -4.464844 2.648438 -7.992188 4.828125 -10.121094 C 6.488281 -11.78125 8.824219 -12.558594 11.886719 -12.558594 L 12.195312 -12.558594 C 15.570312 -12.507812 17.335938 -11.367188 18.789062 -10.121094 C 18.941406 -10.015625 19.152344 -9.914062 19.359375 -9.914062 C 19.460938 -9.914062 19.617188 -9.964844 19.722656 -10.015625 C 20.03125 -10.171875 20.1875 -10.484375 20.1875 -10.792969 L 20.1875 -11.988281 C 20.1875 -20.757812 21.226562 -33.421875 22.730469 -37.78125 C 23.199219 -39.183594 24.546875 -39.652344 25.636719 -39.652344 L 25.691406 -39.652344 C 26.832031 -39.652344 28.285156 -39.132812 28.75 -37.679688 C 29.21875 -36.171875 29.476562 -32.488281 29.476562 -27.765625 C 29.476562 -12.976562 27.402344 12.195312 25.480469 14.117188 C 24.808594 14.582031 24.027344 14.792969 23.300781 14.792969 C 23.09375 14.792969 22.9375 14.792969 22.730469 14.738281 C 22.316406 14.636719 22.003906 14.429688 21.847656 14.21875 C 21.175781 13.183594 20.914062 10.121094 20.757812 8.667969 C 20.757812 8.199219 20.34375 7.835938 19.929688 7.835938 Z M 13.703125 10.015625 L 13.910156 10.015625 C 17.125 10.015625 20.449219 6.953125 20.707031 3.582031 C 20.707031 3.011719 20.757812 2.386719 20.757812 1.710938 C 20.757812 -1.039062 20.550781 -4.671875 20.242188 -6.644531 C 19.980469 -8.5625 17.4375 -10.429688 14.21875 -10.429688 C 13.910156 -10.429688 13.597656 -10.429688 13.285156 -10.378906 C 9.445312 -9.964844 7.523438 -4.980469 7.523438 0 L 7.523438 0.777344 C 7.734375 6.28125 10.171875 9.914062 13.703125 10.015625 Z M 14.21875 -8.667969 C 16.710938 -8.667969 18.425781 -7.265625 18.527344 -6.382812 C 18.839844 -4.617188 19.046875 -1.039062 19.046875 1.816406 C 19.046875 2.386719 18.996094 2.957031 18.996094 3.476562 C 18.789062 5.917969 16.246094 8.304688 13.910156 8.304688 C 13.855469 8.304688 13.804688 8.25 13.753906 8.25 C 10.640625 8.199219 9.394531 4.152344 9.289062 0.675781 L 9.289062 -0.105469 C 9.289062 -4.203125 10.792969 -8.355469 13.492188 -8.613281 C 13.753906 -8.667969 13.960938 -8.667969 14.21875 -8.667969 Z M 14.21875 -8.667969 "/></g></g></g><g fill="#000000" fill-opacity="1"><g transform="translate(176.471808, 421.481552)"><g><path d="M 7.472656 14.117188 C 8.925781 14.117188 10.121094 13.492188 10.640625 12.507812 C 12.144531 10.378906 13.492188 -0.726562 14.117188 -10.585938 C 14.167969 -12.351562 16.140625 -14.894531 18.007812 -15.671875 C 18.371094 -15.828125 18.632812 -15.828125 18.890625 -15.828125 C 19.566406 -15.828125 19.878906 -15.519531 20.03125 -15.414062 C 21.589844 -13.960938 21.746094 -12.664062 22.003906 -11.054688 C 22.058594 -10.640625 22.109375 -10.222656 22.210938 -9.757812 C 22.367188 -8.667969 23.199219 -7.886719 24.132812 -7.886719 L 24.238281 -7.886719 C 25.328125 -7.886719 27.972656 -8.769531 28.335938 -11.367188 C 28.386719 -11.675781 28.441406 -12.09375 28.441406 -12.613281 C 28.441406 -14.21875 28.023438 -16.609375 26.726562 -18.578125 C 25.480469 -20.5 23.769531 -21.695312 21.695312 -22.109375 C 21.175781 -22.210938 20.65625 -22.265625 20.1875 -22.265625 C 17.699219 -22.265625 15.777344 -21.019531 14.582031 -20.1875 C 14.273438 -20.03125 13.960938 -19.773438 13.703125 -19.667969 C 13.648438 -19.773438 13.648438 -19.929688 13.597656 -20.1875 C 12.976562 -24.082031 10.171875 -25.429688 7.835938 -25.429688 C 7.578125 -25.429688 7.371094 -25.378906 7.160156 -25.378906 C 3.996094 -25.015625 0.726562 -22.421875 0.726562 -18.269531 L 0.726562 -17.179688 C 0.726562 -13.183594 1.039062 5.136719 2.800781 11.210938 C 3.269531 12.921875 5.242188 13.910156 6.851562 14.066406 C 7.058594 14.117188 7.265625 14.117188 7.472656 14.117188 Z M 7.835938 -23.664062 C 9.601562 -23.664062 11.46875 -22.679688 11.886719 -19.980469 C 11.9375 -19.253906 12.09375 -18.320312 12.871094 -17.957031 C 13.078125 -17.851562 13.285156 -17.800781 13.492188 -17.800781 C 14.117188 -17.800781 14.738281 -18.214844 15.519531 -18.734375 C 16.710938 -19.515625 18.214844 -20.5 20.1875 -20.5 C 20.550781 -20.5 20.96875 -20.5 21.382812 -20.394531 C 22.992188 -20.085938 24.289062 -19.152344 25.222656 -17.644531 C 26.3125 -15.933594 26.726562 -13.960938 26.726562 -12.664062 C 26.726562 -12.25 26.675781 -11.9375 26.625 -11.675781 C 26.417969 -10.015625 24.601562 -9.652344 24.238281 -9.652344 C 24.132812 -9.652344 23.976562 -9.757812 23.925781 -10.066406 C 23.820312 -10.484375 23.769531 -10.898438 23.71875 -11.3125 C 23.457031 -13.027344 23.25 -14.84375 21.226562 -16.660156 C 20.550781 -17.28125 19.773438 -17.59375 18.941406 -17.59375 C 18.425781 -17.59375 17.90625 -17.488281 17.335938 -17.28125 C 14.84375 -16.296875 12.507812 -13.128906 12.351562 -10.691406 C 11.625 1.246094 10.171875 10.121094 9.1875 11.625 C 8.824219 12.25 7.992188 12.351562 7.472656 12.351562 L 7.058594 12.351562 C 5.8125 12.195312 4.671875 11.46875 4.464844 10.742188 C 2.75 4.929688 2.4375 -13.546875 2.4375 -17.28125 L 2.4375 -18.214844 C 2.4375 -21.382812 4.929688 -23.355469 7.371094 -23.613281 C 7.523438 -23.664062 7.679688 -23.664062 7.835938 -23.664062 Z M 7.835938 -23.664062 "/></g></g></g><g fill="#000000" fill-opacity="1"><g transform="translate(204.911469, 421.481552)"><g><path d="M 10.949219 10.949219 C 11.105469 10.949219 11.3125 10.898438 11.523438 10.898438 C 19.203125 10.328125 23.613281 1.972656 23.613281 -6.070312 L 23.613281 -6.902344 C 23.355469 -13.546875 19.929688 -21.226562 11.105469 -21.226562 C 7.265625 -21.226562 4.152344 -19.304688 2.179688 -15.671875 C 0.675781 -12.921875 -0.0507812 -9.445312 -0.0507812 -5.863281 C -0.0507812 -1.558594 1.039062 2.855469 3.164062 6.175781 C 5.136719 9.238281 7.886719 10.949219 10.949219 10.949219 Z M 11.105469 -19.515625 C 18.683594 -19.515625 21.640625 -12.664062 21.847656 -6.851562 L 21.847656 -6.125 C 21.847656 1.140625 18.113281 8.667969 11.417969 9.1875 L 10.898438 9.1875 C 7.886719 9.1875 5.8125 7.058594 4.617188 5.191406 C 2.699219 2.230469 1.710938 -1.921875 1.710938 -5.96875 C 1.710938 -9.238281 2.335938 -12.402344 3.683594 -14.84375 C 4.828125 -16.972656 7.058594 -19.515625 11.105469 -19.515625 Z M 10.277344 7.007812 L 10.484375 7.007812 C 11.46875 7.007812 12.351562 6.332031 13.078125 4.980469 C 14.375 2.648438 15.308594 -1.972656 15.308594 -6.332031 C 15.308594 -9.445312 14.84375 -12.457031 13.648438 -14.375 C 12.765625 -15.777344 11.523438 -16.503906 10.066406 -16.503906 L 9.914062 -16.503906 C 9.1875 -16.453125 8.097656 -16.035156 7.265625 -14.324219 C 6.226562 -12.25 5.707031 -8.769531 5.707031 -5.292969 C 5.707031 -0.933594 6.488281 3.476562 7.886719 5.554688 C 8.71875 6.695312 9.652344 7.007812 10.277344 7.007812 Z M 10.015625 -14.738281 L 10.121094 -14.738281 C 10.949219 -14.738281 11.625 -14.324219 12.144531 -13.441406 C 13.183594 -11.832031 13.597656 -9.1875 13.597656 -6.332031 C 13.597656 -2.335938 12.714844 1.972656 11.574219 4.101562 C 11.105469 4.929688 10.691406 5.242188 10.378906 5.242188 L 10.328125 5.242188 C 10.171875 5.242188 9.808594 5.191406 9.339844 4.515625 C 8.097656 2.800781 7.472656 -1.246094 7.472656 -5.242188 C 7.472656 -8.460938 7.886719 -11.675781 8.824219 -13.546875 C 9.03125 -13.960938 9.496094 -14.738281 10.015625 -14.738281 Z M 10.015625 -14.738281 "/></g></g></g><g fill="#000000" fill-opacity="1"><g transform="translate(229.510746, 421.481552)"><g><path d="M 11.105469 13.339844 C 11.261719 13.339844 11.417969 13.339844 11.574219 13.285156 C 15.933594 13.027344 17.699219 8.824219 18.527344 5.8125 C 19.878906 9.445312 22.574219 12.457031 26.519531 12.558594 L 27.089844 12.558594 C 30.101562 12.558594 32.644531 11.417969 34.667969 9.339844 C 39.652344 4.203125 40.480469 -5.863281 40.480469 -11.988281 C 40.480469 -13.546875 40.429688 -14.894531 40.378906 -15.777344 C 40.378906 -18.0625 39.441406 -19.878906 37.730469 -20.863281 C 36.898438 -21.332031 35.964844 -21.589844 35.03125 -21.589844 C 33.992188 -21.589844 32.957031 -21.332031 32.074219 -20.8125 C 30.359375 -19.824219 29.375 -17.957031 29.375 -15.726562 C 29.375 -15 29.425781 -14.167969 29.425781 -13.285156 C 29.425781 -6.796875 28.699219 2.128906 26.519531 4.308594 C 26.207031 4.671875 25.949219 4.722656 25.792969 4.722656 C 24.703125 4.722656 24.027344 4.464844 23.457031 3.890625 C 22.003906 2.285156 21.226562 -1.867188 21.226562 -9.132812 C 21.226562 -11.523438 21.332031 -14.324219 21.484375 -17.4375 C 21.382812 -19.097656 19.566406 -19.878906 17.800781 -19.929688 C 15.777344 -19.878906 14.375 -18.734375 14.375 -17.074219 L 14.375 -14.636719 C 14.375 -0.0507812 12.613281 3.945312 11.523438 4.980469 C 11.210938 5.292969 10.949219 5.292969 10.792969 5.292969 C 10.429688 5.292969 10.121094 5.136719 9.859375 4.773438 C 8.667969 3.375 8.304688 0 8.304688 -3.738281 C 8.304688 -7.578125 8.667969 -11.832031 8.925781 -14.53125 C 9.082031 -15.984375 9.1875 -17.023438 9.1875 -17.644531 L 9.1875 -18.007812 C 9.082031 -19.566406 6.953125 -20.292969 4.722656 -20.292969 L 4.515625 -20.292969 C 2.179688 -20.242188 0.726562 -19.410156 0.726562 -18.0625 L 0.726562 -17.75 C 0.675781 -16.453125 0.621094 -15 0.621094 -13.441406 C 0.621094 -4.773438 1.609375 6.796875 6.332031 11.3125 C 7.679688 12.664062 9.289062 13.339844 11.105469 13.339844 Z M 4.671875 -18.578125 C 6.019531 -18.578125 7.265625 -18.214844 7.472656 -17.90625 C 7.472656 -17.488281 7.371094 -16.191406 7.214844 -14.738281 C 6.851562 -11.003906 6.539062 -7.109375 6.539062 -3.683594 C 6.539062 0.621094 7.058594 4.203125 8.511719 5.917969 C 9.132812 6.644531 9.859375 7.007812 10.691406 7.058594 C 11.46875 7.058594 12.144531 6.796875 12.714844 6.226562 C 15 4.101562 16.140625 -2.957031 16.140625 -14.738281 L 16.140625 -17.074219 C 16.140625 -18.113281 17.699219 -18.164062 17.851562 -18.164062 C 18.839844 -18.113281 19.722656 -17.800781 19.722656 -17.4375 C 19.566406 -14.324219 19.460938 -11.574219 19.460938 -9.1875 C 19.460938 -1.246094 20.34375 3.113281 22.210938 5.085938 C 23.40625 6.332031 24.808594 6.488281 25.792969 6.488281 C 26.519531 6.488281 27.195312 6.175781 27.816406 5.554688 C 30.878906 2.386719 31.140625 -8.976562 31.140625 -13.703125 L 31.140625 -15.777344 C 31.140625 -17.386719 31.761719 -18.632812 32.957031 -19.304688 C 33.578125 -19.667969 34.304688 -19.824219 34.980469 -19.824219 C 35.65625 -19.824219 36.277344 -19.667969 36.847656 -19.359375 C 38.042969 -18.683594 38.664062 -17.386719 38.664062 -15.777344 L 38.664062 -15.519531 C 38.714844 -14.6875 38.769531 -13.441406 38.769531 -11.886719 C 38.769531 -6.125 38.042969 3.476562 33.421875 8.148438 C 31.65625 9.964844 29.476562 10.847656 26.78125 10.847656 L 26.570312 10.847656 C 22.472656 10.691406 20.03125 6.488281 19.410156 2.386719 C 19.359375 2.023438 19.152344 1.765625 18.789062 1.660156 C 18.734375 1.660156 18.632812 1.609375 18.578125 1.609375 C 18.320312 1.609375 18.0625 1.765625 17.90625 1.972656 C 17.644531 2.285156 17.488281 2.75 17.230469 3.839844 C 16.609375 6.488281 15.414062 11.3125 11.46875 11.574219 L 11.105469 11.574219 C 9.757812 11.574219 8.5625 11.054688 7.523438 10.066406 C 4.152344 6.796875 2.386719 -1.453125 2.386719 -13.441406 C 2.386719 -14.792969 2.386719 -16.246094 2.4375 -17.699219 L 2.4375 -18.007812 C 2.4375 -18.0625 2.648438 -18.269531 3.269531 -18.425781 C 3.738281 -18.527344 4.203125 -18.578125 4.671875 -18.578125 Z M 4.671875 -18.578125 "/></g></g></g><g fill="#000000" fill-opacity="1"><g transform="translate(270.717127, 421.481552)"><g><path d="M 5.96875 16.609375 L 6.488281 16.609375 C 12.25 15.984375 12.351562 8.769531 12.402344 4.878906 C 12.402344 3.996094 12.457031 2.90625 12.457031 2.75 C 13.441406 1.609375 14.429688 0.46875 15.464844 -0.675781 L 16.453125 -1.765625 C 16.710938 -0.933594 17.023438 0.46875 17.28125 1.558594 C 17.90625 4.152344 18.578125 7.058594 19.617188 8.5625 C 20.65625 10.015625 22.003906 10.742188 23.457031 10.742188 C 24.339844 10.742188 25.222656 10.484375 26.105469 9.964844 C 28.179688 8.667969 28.960938 5.761719 28.960938 2.542969 C 28.960938 -0.363281 28.335938 -3.527344 27.453125 -5.96875 C 26.882812 -7.472656 26.105469 -9.132812 25.066406 -10.015625 C 27.144531 -12.09375 28.804688 -13.960938 30.464844 -15.933594 C 30.984375 -16.554688 31.191406 -17.230469 31.191406 -17.851562 C 31.191406 -18.425781 31.035156 -18.996094 30.621094 -19.460938 C 30.101562 -20.136719 29.269531 -20.5 28.386719 -20.5 C 27.921875 -20.5 27.453125 -20.394531 26.988281 -20.1875 C 24.082031 -19.617188 17.542969 -13.027344 13.390625 -8.148438 C 13.960938 -13.855469 15.414062 -26.988281 16.503906 -36.328125 C 16.503906 -36.484375 16.554688 -36.640625 16.554688 -36.847656 C 16.554688 -38.300781 15.726562 -39.753906 14.117188 -40.84375 C 12.664062 -41.832031 10.535156 -42.503906 8.40625 -42.503906 C 6.953125 -42.503906 5.5 -42.246094 4.253906 -41.519531 C 2.648438 -40.585938 0.726562 -38.664062 0.726562 -34.617188 L 0.726562 -33.992188 C 0.777344 -31.554688 0.777344 -29.21875 0.777344 -26.933594 C 0.777344 -21.640625 0.675781 -16.761719 0.621094 -12.25 C 0.570312 -8.511719 0.519531 -5.085938 0.519531 -1.972656 C 0.519531 7.265625 1.039062 13.390625 3.476562 15.671875 C 4.152344 16.296875 5.035156 16.609375 5.96875 16.609375 Z M 8.355469 -40.792969 C 10.121094 -40.792969 11.9375 -40.222656 13.128906 -39.390625 C 13.753906 -38.976562 14.738281 -38.09375 14.738281 -36.898438 L 14.738281 -36.535156 C 14.429688 -33.527344 11.417969 -6.695312 11.417969 -5.449219 C 11.417969 -5.035156 11.625 -4.722656 11.988281 -4.617188 C 12.09375 -4.566406 12.195312 -4.566406 12.25 -4.566406 C 12.507812 -4.566406 12.765625 -4.671875 12.976562 -4.878906 C 17.90625 -11.210938 25.328125 -18.214844 27.402344 -18.527344 C 27.507812 -18.527344 27.558594 -18.578125 27.660156 -18.632812 C 27.871094 -18.734375 28.128906 -18.789062 28.335938 -18.789062 C 28.699219 -18.789062 29.0625 -18.632812 29.269531 -18.371094 C 29.425781 -18.214844 29.476562 -18.0625 29.476562 -17.90625 C 29.476562 -17.542969 29.269531 -17.230469 29.113281 -17.074219 C 27.296875 -14.84375 25.378906 -12.765625 22.9375 -10.328125 C 22.785156 -10.171875 22.679688 -9.964844 22.679688 -9.703125 C 22.679688 -9.601562 22.730469 -9.445312 22.785156 -9.339844 C 22.9375 -8.976562 23.300781 -8.824219 23.664062 -8.824219 C 23.875 -8.824219 24.808594 -8.199219 25.792969 -5.34375 C 26.675781 -2.855469 27.195312 0 27.195312 2.542969 C 27.195312 5.292969 26.570312 7.578125 25.171875 8.460938 C 24.601562 8.824219 23.976562 8.976562 23.457031 8.976562 C 22.523438 8.976562 21.695312 8.511719 21.019531 7.578125 C 20.1875 6.382812 19.515625 3.476562 18.996094 1.195312 C 18.214844 -2.230469 17.851562 -3.632812 16.867188 -3.890625 C 16.761719 -3.945312 16.660156 -3.945312 16.554688 -3.945312 C 16.296875 -3.945312 15.984375 -3.789062 15.671875 -3.527344 L 14.167969 -1.816406 C 13.128906 -0.675781 12.09375 0.46875 11.160156 1.660156 C 10.742188 2.128906 10.691406 2.90625 10.640625 4.828125 C 10.585938 9.496094 10.171875 14.429688 6.28125 14.84375 C 6.125 14.84375 6.019531 14.894531 5.917969 14.894531 C 5.398438 14.894531 4.980469 14.6875 4.617188 14.375 C 2.699219 12.613281 2.230469 6.488281 2.230469 -1.921875 C 2.230469 -5.085938 2.335938 -8.5625 2.386719 -12.25 C 2.4375 -16.816406 2.542969 -21.796875 2.542969 -27.144531 C 2.542969 -29.375 2.542969 -31.710938 2.492188 -34.046875 L 2.492188 -34.667969 C 2.492188 -37.210938 3.375 -39.078125 5.136719 -40.015625 C 6.070312 -40.53125 7.214844 -40.792969 8.355469 -40.792969 Z M 8.355469 -40.792969 "/></g></g></g><g fill="#000000" fill-opacity="1"><g transform="translate(302.893386, 421.481552)"><g><path d="M 12.402344 11.78125 L 12.558594 11.78125 C 14.582031 11.78125 20.707031 9.703125 21.695312 0.414062 L 21.695312 0.15625 C 21.695312 -0.46875 21.382812 -1.089844 20.863281 -1.503906 C 20.292969 -1.921875 19.515625 -2.128906 18.683594 -2.128906 C 18.0625 -2.128906 17.4375 -1.972656 16.867188 -1.710938 C 15.984375 -1.246094 15.414062 -0.46875 15.363281 0.414062 C 15.15625 4.617188 13.804688 6.070312 12.714844 6.070312 C 11.78125 6.070312 10.222656 2.542969 9.757812 -5.035156 C 9.703125 -6.226562 9.652344 -7.371094 9.652344 -8.460938 C 9.652344 -16.246094 11.210938 -21.640625 12.871094 -21.847656 C 13.027344 -21.847656 13.183594 -21.902344 13.339844 -21.902344 C 13.960938 -21.902344 14.480469 -21.695312 14.84375 -21.332031 C 15.671875 -20.5 15.933594 -18.789062 15.933594 -16.972656 C 15.933594 -15.257812 15.671875 -13.441406 15.570312 -12.25 C 15.464844 -11.367188 15.363281 -10.691406 15.363281 -10.171875 L 15.363281 -9.652344 C 15.363281 -9.082031 15.464844 -8.304688 16.035156 -7.734375 C 16.503906 -7.265625 17.230469 -7.058594 18.164062 -7.058594 L 18.632812 -7.058594 C 21.953125 -7.316406 22.109375 -9.601562 22.109375 -10.429688 C 22.210938 -11.3125 22.265625 -12.144531 22.265625 -13.027344 C 22.265625 -17.59375 20.863281 -21.902344 18.527344 -24.496094 C 16.816406 -26.363281 14.6875 -27.246094 12.09375 -27.296875 C 8.199219 -27.246094 4.980469 -25.171875 2.855469 -21.332031 C 1.039062 -18.113281 0.15625 -13.648438 0.15625 -9.082031 C 0.15625 -3.632812 1.453125 2.023438 3.890625 6.125 C 6.125 9.808594 9.082031 11.78125 12.402344 11.78125 Z M 12.144531 -25.535156 L 12.25 -25.535156 C 14.21875 -25.535156 15.882812 -24.808594 17.28125 -23.300781 C 19.566406 -20.757812 20.5 -16.554688 20.5 -12.871094 C 20.5 -12.09375 20.5 -11.367188 20.394531 -10.640625 L 20.394531 -10.429688 C 20.34375 -9.703125 20.292969 -8.925781 18.476562 -8.824219 L 18.0625 -8.824219 C 17.699219 -8.824219 17.386719 -8.875 17.230469 -8.976562 C 17.125 -9.082031 17.074219 -9.289062 17.074219 -9.550781 C 17.074219 -9.703125 17.125 -9.914062 17.125 -10.066406 L 17.125 -10.429688 C 17.125 -10.691406 17.179688 -11.261719 17.28125 -12.039062 C 17.4375 -13.390625 17.644531 -15.15625 17.644531 -16.917969 C 17.644531 -19.097656 17.335938 -21.277344 16.035156 -22.523438 C 15.363281 -23.25 14.429688 -23.613281 13.339844 -23.613281 C 13.128906 -23.613281 12.871094 -23.5625 12.664062 -23.5625 C 8.925781 -23.148438 7.941406 -14.6875 7.941406 -8.304688 C 7.941406 -7.058594 7.992188 -5.917969 8.042969 -4.929688 C 8.25 -1.140625 9.132812 7.785156 12.714844 7.835938 C 13.648438 7.835938 16.816406 7.316406 17.125 0.519531 C 17.125 0.414062 17.125 0.105469 17.644531 -0.15625 C 17.957031 -0.3125 18.371094 -0.363281 18.734375 -0.363281 C 19.152344 -0.363281 19.617188 -0.257812 19.824219 -0.0507812 C 19.980469 0.0507812 19.980469 0.15625 19.980469 0.207031 C 19.152344 8.25 14.21875 10.066406 12.507812 10.066406 L 12.300781 10.066406 C 9.03125 10.066406 6.695312 7.421875 5.34375 5.191406 C 3.0625 1.347656 1.867188 -3.945312 1.867188 -9.082031 C 1.867188 -13.339844 2.699219 -17.488281 4.359375 -20.5 C 6.226562 -23.820312 8.824219 -25.480469 12.144531 -25.535156 Z M 12.144531 -25.535156 "/></g></g></g><g fill="#000000" fill-opacity="1"><g transform="translate(325.312973, 421.481552)"><g><path d="M 20.292969 17.90625 L 20.914062 17.90625 C 23.664062 17.90625 25.691406 15.933594 26.726562 12.039062 C 28.386719 5.449219 29.21875 -0.363281 29.21875 -5.292969 C 29.21875 -11.523438 27.921875 -16.347656 25.328125 -19.566406 C 22.835938 -22.628906 19.253906 -24.183594 14.636719 -24.183594 L 13.703125 -24.183594 C 9.238281 -24.183594 5.761719 -22.886719 3.425781 -20.394531 C 1.296875 -18.164062 0.15625 -15.050781 0.15625 -11.3125 C 0.15625 -10.898438 0.207031 -10.535156 0.207031 -10.121094 C 0.3125 -7.941406 2.285156 -6.539062 4.101562 -6.539062 L 4.308594 -6.539062 C 5.96875 -6.589844 7.578125 -7.628906 7.578125 -9.964844 C 7.679688 -17.59375 11.417969 -19.773438 13.339844 -19.878906 C 18.113281 -19.722656 18.527344 -14.117188 18.527344 -7.316406 L 18.527344 -5.707031 C 17.488281 -6.332031 15.621094 -7.265625 12.714844 -7.265625 C 8.875 -7.265625 5.449219 -5.5 3.113281 -2.285156 C 1.402344 0.0507812 0.46875 2.957031 0.46875 5.65625 C 0.46875 6.695312 0.570312 7.679688 0.882812 8.613281 C 2.648438 14.21875 6.175781 17.023438 11.574219 17.023438 L 12.457031 17.023438 C 15 16.867188 16.609375 15.933594 17.59375 15 C 17.542969 15.257812 17.542969 15.519531 17.542969 15.726562 C 17.542969 16.140625 17.59375 16.554688 17.851562 16.917969 C 18.269531 17.488281 19.046875 17.800781 20.292969 17.90625 Z M 19.253906 15.882812 L 19.253906 15.777344 C 19.253906 15.621094 19.304688 15.257812 19.359375 15.050781 C 19.460938 14.636719 19.566406 14.117188 19.566406 13.546875 C 19.566406 13.183594 19.515625 12.765625 19.359375 12.351562 C 19.253906 12.039062 18.890625 11.78125 18.578125 11.730469 L 18.425781 11.730469 C 17.957031 11.730469 17.699219 12.144531 17.4375 12.457031 C 16.917969 13.234375 15.726562 15.101562 12.402344 15.257812 L 11.730469 15.257812 C 6.953125 15.257812 4.152344 13.078125 2.542969 8.097656 C 2.285156 7.371094 2.179688 6.539062 2.179688 5.707031 C 2.179688 3.375 3.011719 0.777344 4.515625 -1.296875 C 6.488281 -3.996094 9.394531 -5.5 12.714844 -5.5 C 15.570312 -5.5 17.230469 -4.515625 18.0625 -3.945312 C 18.476562 -3.683594 18.839844 -3.476562 19.203125 -3.476562 C 19.410156 -3.476562 19.566406 -3.527344 19.773438 -3.632812 C 20.242188 -3.890625 20.292969 -4.464844 20.292969 -4.828125 L 20.292969 -7.316406 C 20.242188 -13.285156 20.242188 -21.382812 13.339844 -21.589844 C 10.585938 -21.484375 5.96875 -18.890625 5.863281 -9.964844 C 5.863281 -8.460938 4.722656 -8.304688 4.253906 -8.304688 C 3.269531 -8.304688 2.023438 -8.824219 1.972656 -10.222656 C 1.921875 -10.640625 1.921875 -11.003906 1.921875 -11.417969 C 1.921875 -14.636719 2.90625 -17.28125 4.671875 -19.203125 C 6.644531 -21.277344 9.703125 -22.421875 13.441406 -22.421875 L 14.21875 -22.421875 C 18.527344 -22.421875 21.796875 -21.175781 23.976562 -18.476562 C 26.261719 -15.570312 27.453125 -11.054688 27.453125 -5.242188 C 27.453125 -0.414062 26.625 5.292969 25.015625 11.730469 C 24.238281 14.6875 22.835938 16.191406 20.914062 16.191406 C 20.757812 16.191406 20.605469 16.140625 20.449219 16.140625 C 19.460938 16.089844 19.253906 15.882812 19.253906 15.882812 Z M 12.921875 14.066406 L 13.027344 14.066406 C 16.972656 14.066406 19.824219 10.066406 19.980469 8.40625 C 20.394531 4.253906 20.449219 2.542969 20.449219 1.296875 L 20.449219 -1.039062 C 20.449219 -1.558594 20.136719 -1.867188 20.03125 -2.023438 C 19.203125 -2.90625 16.816406 -4.203125 14.894531 -4.203125 C 10.949219 -4.152344 8.40625 -1.972656 7.679688 2.128906 C 7.523438 3.164062 7.371094 4.464844 7.371094 5.863281 C 7.371094 8.148438 7.785156 10.640625 9.132812 12.300781 C 10.066406 13.390625 11.367188 14.011719 12.921875 14.066406 Z M 14.894531 -2.492188 C 16.296875 -2.492188 18.269531 -1.347656 18.683594 -0.882812 L 18.683594 1.710938 C 18.683594 2.855469 18.632812 4.515625 18.269531 8.199219 L 18.269531 8.25 C 18.164062 8.875 16.140625 12.300781 13.027344 12.300781 L 12.976562 12.300781 C 11.886719 12.25 11.054688 11.886719 10.484375 11.160156 C 9.601562 10.121094 9.132812 8.25 9.132812 5.863281 C 9.132812 4.773438 9.1875 3.582031 9.394531 2.335938 C 9.964844 -0.832031 11.832031 -2.4375 14.894531 -2.492188 Z M 14.894531 -2.492188 "/></g></g></g><g fill="#000000" fill-opacity="1"><g transform="translate(355.153868, 421.481552)"><g><path d="M 6.695312 21.175781 C 8.355469 21.175781 10.378906 20.1875 10.742188 18.425781 L 10.742188 18.214844 C 11.625 18.683594 13.183594 19.566406 15.933594 19.566406 L 16.089844 19.566406 C 24.339844 19.566406 29.269531 11.46875 29.738281 3.839844 C 29.789062 3.21875 29.789062 2.4375 29.789062 1.660156 C 29.789062 -2.128906 29.113281 -7.421875 25.898438 -10.792969 C 23.875 -12.921875 21.070312 -14.066406 17.644531 -14.066406 L 16.972656 -14.066406 C 14.84375 -14.011719 13.441406 -13.390625 12.457031 -12.664062 C 12.507812 -13.804688 12.558594 -15.15625 12.664062 -16.660156 C 12.871094 -20.449219 13.128906 -25.273438 13.128906 -30.203125 C 13.128906 -32.125 13.078125 -34.097656 12.976562 -36.019531 C 12.871094 -39.027344 10.484375 -40.585938 8.355469 -40.6875 L 7.992188 -40.6875 C 5.863281 -40.6875 3.425781 -39.339844 2.90625 -36.171875 C 1.558594 -29.113281 0.570312 -19.203125 0.570312 -8.460938 C 0.570312 0.207031 1.195312 9.394531 2.90625 18.164062 C 3.269531 19.980469 4.722656 21.175781 6.695312 21.175781 Z M 4.617188 17.800781 C 2.957031 9.1875 2.335938 0.105469 2.335938 -8.40625 C 2.335938 -19.046875 3.320312 -28.804688 4.617188 -35.808594 C 5.035156 -38.144531 6.644531 -38.976562 7.992188 -38.976562 L 8.25 -38.976562 C 9.652344 -38.871094 11.160156 -37.886719 11.261719 -35.964844 C 11.367188 -34.148438 11.367188 -32.28125 11.367188 -30.414062 C 11.367188 -25.429688 11.105469 -20.605469 10.898438 -16.761719 C 10.792969 -14.429688 10.691406 -12.457031 10.691406 -11.003906 C 10.691406 -10.484375 10.847656 -10.121094 11.261719 -9.964844 C 11.367188 -9.914062 11.523438 -9.914062 11.625 -9.914062 C 12.039062 -9.914062 12.351562 -10.222656 12.558594 -10.429688 C 13.128906 -11.054688 14.273438 -12.300781 16.972656 -12.351562 L 17.59375 -12.351562 C 20.550781 -12.351562 22.886719 -11.367188 24.601562 -9.601562 C 27.507812 -6.589844 28.078125 -1.710938 28.078125 1.765625 C 28.078125 2.492188 28.078125 3.164062 28.023438 3.738281 C 27.609375 10.535156 23.25 17.851562 16.089844 17.851562 L 15.933594 17.851562 C 13.648438 17.851562 12.351562 17.125 11.625 16.710938 C 11.261719 16.503906 10.847656 16.296875 10.429688 16.296875 C 10.277344 16.296875 10.121094 16.296875 9.914062 16.398438 C 9.339844 16.660156 9.132812 17.335938 9.03125 18.0625 C 8.875 18.789062 7.785156 19.410156 6.695312 19.410156 C 6.019531 19.410156 4.878906 19.203125 4.617188 17.800781 Z M 15.207031 16.140625 C 16.816406 16.035156 18.996094 15 20.449219 10.691406 C 21.332031 8.042969 21.695312 4.617188 21.695312 1.296875 C 21.695312 -3.375 20.914062 -7.734375 19.410156 -8.976562 C 18.476562 -9.757812 17.335938 -10.171875 16.035156 -10.171875 C 15.15625 -10.171875 14.167969 -9.914062 13.183594 -9.496094 C 11.9375 -8.976562 10.484375 -7.886719 10.484375 -6.746094 C 10.015625 2.90625 9.757812 7.265625 9.652344 9.445312 C 9.601562 10.277344 9.550781 11.105469 9.550781 11.832031 C 9.550781 13.128906 9.703125 14.167969 10.222656 14.480469 C 11.523438 15.257812 12.976562 16.140625 14.84375 16.140625 Z M 11.261719 13.078125 C 11.3125 12.976562 11.3125 12.820312 11.3125 12.714844 L 11.3125 12.402344 C 11.3125 12.144531 11.261719 11.9375 11.261719 11.730469 C 11.261719 11.367188 11.3125 10.847656 11.417969 9.550781 C 11.523438 7.371094 11.730469 2.957031 12.195312 -6.644531 C 12.25 -6.851562 12.976562 -7.628906 14.375 -8.148438 C 14.792969 -8.25 15.414062 -8.40625 16.035156 -8.40625 C 16.761719 -8.40625 17.59375 -8.25 18.269531 -7.628906 C 19.253906 -6.796875 19.980469 -2.957031 19.980469 1.347656 C 19.980469 4.359375 19.617188 7.578125 18.789062 10.171875 C 18.164062 12.039062 17.023438 14.273438 15.101562 14.375 L 14.738281 14.375 C 13.492188 14.375 12.402344 13.753906 11.261719 13.128906 Z M 11.261719 13.078125 "/></g></g></g></svg>